<svg width="1280" height="720" viewBox="0 0 1280 720" fill="none" xmlns="http://www.w3.org/2000/svg">
<g clip-path="url(#clip0_48_416)">
<rect width="1280" height="720" fill="#272C50"/>
<path d="M736.5 5L738.887 7.6499e-07L733.113 -7.6499e-07L735.5 5L736.5 5ZM735.5 4.5L735.5 6.04167L736.5 6.04167L736.5 4.5L735.5 4.5ZM735.5 18.125L735.5 30.2083L736.5 30.2083L736.5 18.125L735.5 18.125ZM735.5 42.2917L735.5 54.375L736.5 54.375L736.5 42.2917L735.5 42.2917ZM735.5 66.4583L735.5 78.5417L736.5 78.5417L736.5 66.4583L735.5 66.4583ZM735.5 90.625L735.5 102.708L736.5 102.708L736.5 90.625L735.5 90.625ZM735.5 114.792L735.5 126.875L736.5 126.875L736.5 114.792L735.5 114.792ZM735.5 138.958L735.5 151.042L736.5 151.042L736.5 138.958L735.5 138.958ZM735.5 163.125L735.5 175.208L736.5 175.208L736.5 163.125L735.5 163.125ZM735.5 187.292L735.5 199.375L736.5 199.375L736.5 187.292L735.5 187.292ZM735.5 211.458L735.5 223.542L736.5 223.542L736.5 211.458L735.5 211.458ZM735.5 235.625L735.5 247.708L736.5 247.708L736.5 235.625L735.5 235.625ZM735.5 259.792L735.5 271.875L736.5 271.875L736.5 259.792L735.5 259.792ZM735.5 283.958L735.5 296.042L736.5 296.042L736.5 283.958L735.5 283.958ZM735.5 308.125L735.5 320.208L736.5 320.208L736.5 308.125L735.5 308.125ZM735.5 332.292L735.5 344.375L736.5 344.375L736.5 332.292L735.5 332.292ZM735.5 356.458L735.5 368.542L736.5 368.542L736.5 356.458L735.5 356.458ZM735.5 380.625L735.5 392.708L736.5 392.708L736.5 380.625L735.5 380.625ZM735.5 404.792L735.5 416.875L736.5 416.875L736.5 404.792L735.5 404.792ZM735.5 428.958L735.5 441.042L736.5 441.042L736.5 428.958L735.5 428.958ZM735.5 453.125L735.5 465.208L736.5 465.208L736.5 453.125L735.5 453.125ZM735.5 477.292L735.5 489.375L736.5 489.375L736.5 477.292L735.5 477.292ZM735.5 501.458L735.5 513.542L736.5 513.542L736.5 501.458L735.5 501.458ZM735.5 525.625L735.5 537.708L736.5 537.708L736.5 525.625L735.5 525.625ZM735.5 549.792L735.5 561.875L736.5 561.875L736.5 549.792L735.5 549.792ZM735.5 573.958L735.5 580L736.5 580L736.5 573.958L735.5 573.958Z" fill="#121212"/>
<path d="M160.5 5L162.887 1.26184e-07L157.113 -1.26184e-07L159.5 5L160.5 5ZM159.5 4.5L159.5 6.04167L160.5 6.04167L160.5 4.5L159.5 4.5ZM159.5 18.125L159.5 30.2083L160.5 30.2083L160.5 18.125L159.5 18.125ZM159.5 42.2917L159.5 54.375L160.5 54.375L160.5 42.2917L159.5 42.2917ZM159.5 66.4583L159.5 78.5417L160.5 78.5417L160.5 66.4583L159.5 66.4583ZM159.5 90.625L159.5 102.708L160.5 102.708L160.5 90.625L159.5 90.625ZM159.5 114.792L159.5 126.875L160.5 126.875L160.5 114.792L159.5 114.792ZM159.5 138.958L159.5 151.042L160.5 151.042L160.5 138.958L159.5 138.958ZM159.5 163.125L159.5 175.208L160.5 175.208L160.5 163.125L159.5 163.125ZM159.5 187.292L159.5 199.375L160.5 199.375L160.5 187.292L159.5 187.292ZM159.5 211.458L159.5 223.542L160.5 223.542L160.5 211.458L159.5 211.458ZM159.5 235.625L159.5 247.708L160.5 247.708L160.5 235.625L159.5 235.625ZM159.5 259.792L159.5 271.875L160.5 271.875L160.5 259.792L159.5 259.792ZM159.5 283.958L159.5 296.042L160.5 296.042L160.5 283.958L159.5 283.958ZM159.5 308.125L159.5 320.208L160.5 320.208L160.5 308.125L159.5 308.125ZM159.5 332.292L159.5 344.375L160.5 344.375L160.5 332.292L159.5 332.292ZM159.5 356.458L159.5 368.542L160.5 368.542L160.5 356.458L159.5 356.458ZM159.5 380.625L159.5 392.708L160.5 392.708L160.5 380.625L159.5 380.625ZM159.5 404.792L159.5 416.875L160.5 416.875L160.5 404.792L159.5 404.792ZM159.5 428.958L159.5 441.042L160.5 441.042L160.5 428.958L159.5 428.958ZM159.5 453.125L159.5 465.208L160.5 465.208L160.5 453.125L159.5 453.125ZM159.5 477.292L159.5 489.375L160.5 489.375L160.5 477.292L159.5 477.292ZM159.5 501.458L159.5 513.542L160.5 513.542L160.5 501.458L159.5 501.458ZM159.5 525.625L159.5 537.708L160.5 537.708L160.5 525.625L159.5 525.625ZM159.5 549.792L159.5 561.875L160.5 561.875L160.5 549.792L159.5 549.792ZM159.5 573.958L159.5 580L160.5 580L160.5 573.958L159.5 573.958Z" fill="#121212"/>
<path d="M544.5 5L546.887 7.6499e-07L541.113 -7.6499e-07L543.5 5L544.5 5ZM543.5 4.5L543.5 6.04167L544.5 6.04167L544.5 4.5L543.5 4.5ZM543.5 18.125L543.5 30.2083L544.5 30.2083L544.5 18.125L543.5 18.125ZM543.5 42.2917L543.5 54.375L544.5 54.375L544.5 42.2917L543.5 42.2917ZM543.5 66.4583L543.5 78.5417L544.5 78.5417L544.5 66.4583L543.5 66.4583ZM543.5 90.625L543.5 102.708L544.5 102.708L544.5 90.625L543.5 90.625ZM543.5 114.792L543.5 126.875L544.5 126.875L544.5 114.792L543.5 114.792ZM543.5 138.958L543.5 151.042L544.5 151.042L544.5 138.958L543.5 138.958ZM543.5 163.125L543.5 175.208L544.5 175.208L544.5 163.125L543.5 163.125ZM543.5 187.292L543.5 199.375L544.5 199.375L544.5 187.292L543.5 187.292ZM543.5 211.458L543.5 223.542L544.5 223.542L544.5 211.458L543.5 211.458ZM543.5 235.625L543.5 247.708L544.5 247.708L544.5 235.625L543.5 235.625ZM543.5 259.792L543.5 271.875L544.5 271.875L544.5 259.792L543.5 259.792ZM543.5 283.958L543.5 296.042L544.5 296.042L544.5 283.958L543.5 283.958ZM543.5 308.125L543.5 320.208L544.5 320.208L544.5 308.125L543.5 308.125ZM543.5 332.292L543.5 344.375L544.5 344.375L544.5 332.292L543.5 332.292ZM543.5 356.458L543.5 368.542L544.5 368.542L544.5 356.458L543.5 356.458ZM543.5 380.625L543.5 392.708L544.5 392.708L544.5 380.625L543.5 380.625ZM543.5 404.792L543.5 416.875L544.5 416.875L544.5 404.792L543.5 404.792ZM543.5 428.958L543.5 441.042L544.5 441.042L544.5 428.958L543.5 428.958ZM543.5 453.125L543.5 465.208L544.5 465.208L544.5 453.125L543.5 453.125ZM543.5 477.292L543.5 489.375L544.5 489.375L544.5 477.292L543.5 477.292ZM543.5 501.458L543.5 513.542L544.5 513.542L544.5 501.458L543.5 501.458ZM543.5 525.625L543.5 537.708L544.5 537.708L544.5 525.625L543.5 525.625ZM543.5 549.792L543.5 561.875L544.5 561.875L544.5 549.792L543.5 549.792ZM543.5 573.958L543.5 580L544.5 580L544.5 573.958L543.5 573.958Z" fill="#121212"/>
<path d="M928.5 5L930.887 7.6499e-07L925.113 -7.6499e-07L927.5 5L928.5 5ZM927.5 4.5L927.5 6.04167L928.5 6.04167L928.5 4.5L927.5 4.5ZM927.5 18.125L927.5 30.2083L928.5 30.2083L928.5 18.125L927.5 18.125ZM927.5 42.2917L927.5 54.375L928.5 54.375L928.5 42.2917L927.5 42.2917ZM927.5 66.4583L927.5 78.5417L928.5 78.5417L928.5 66.4583L927.5 66.4583ZM927.5 90.625L927.5 102.708L928.5 102.708L928.5 90.625L927.5 90.625ZM927.5 114.792L927.5 126.875L928.5 126.875L928.5 114.792L927.5 114.792ZM927.5 138.958L927.5 151.042L928.5 151.042L928.5 138.958L927.5 138.958ZM927.5 163.125L927.5 175.208L928.5 175.208L928.5 163.125L927.5 163.125ZM927.5 187.292L927.5 199.375L928.5 199.375L928.5 187.292L927.5 187.292ZM927.5 211.458L927.5 223.542L928.5 223.542L928.5 211.458L927.5 211.458ZM927.5 235.625L927.5 247.708L928.5 247.708L928.5 235.625L927.5 235.625ZM927.5 259.792L927.5 271.875L928.5 271.875L928.5 259.792L927.5 259.792ZM927.5 283.958L927.5 296.042L928.5 296.042L928.5 283.958L927.5 283.958ZM927.5 308.125L927.5 320.208L928.5 320.208L928.5 308.125L927.5 308.125ZM927.5 332.292L927.5 344.375L928.5 344.375L928.5 332.292L927.5 332.292ZM927.5 356.458L927.5 368.542L928.5 368.542L928.5 356.458L927.5 356.458ZM927.5 380.625L927.5 392.708L928.5 392.708L928.5 380.625L927.5 380.625ZM927.5 404.792L927.5 416.875L928.5 416.875L928.5 404.792L927.5 404.792ZM927.5 428.958L927.5 441.042L928.5 441.042L928.5 428.958L927.5 428.958ZM927.5 453.125L927.5 465.208L928.5 465.208L928.5 453.125L927.5 453.125ZM927.5 477.292L927.5 489.375L928.5 489.375L928.5 477.292L927.5 477.292ZM927.5 501.458L927.5 513.542L928.5 513.542L928.5 501.458L927.5 501.458ZM927.5 525.625L927.5 537.708L928.5 537.708L928.5 525.625L927.5 525.625ZM927.5 549.792L927.5 561.875L928.5 561.875L928.5 549.792L927.5 549.792ZM927.5 573.958L927.5 580L928.5 580L928.5 573.958L927.5 573.958Z" fill="#121212"/>
<path d="M352.5 5L354.887 7.6499e-07L349.113 -7.6499e-07L351.5 5L352.5 5ZM351.5 4.5L351.5 6.04167L352.5 6.04167L352.5 4.5L351.5 4.5ZM351.5 18.125L351.5 30.2083L352.5 30.2083L352.5 18.125L351.5 18.125ZM351.5 42.2917L351.5 54.375L352.5 54.375L352.5 42.2917L351.5 42.2917ZM351.5 66.4583L351.5 78.5417L352.5 78.5417L352.5 66.4583L351.5 66.4583ZM351.5 90.625L351.5 102.708L352.5 102.708L352.5 90.625L351.5 90.625ZM351.5 114.792L351.5 126.875L352.5 126.875L352.5 114.792L351.5 114.792ZM351.5 138.958L351.5 151.042L352.5 151.042L352.5 138.958L351.5 138.958ZM351.5 163.125L351.5 175.208L352.5 175.208L352.5 163.125L351.5 163.125ZM351.5 187.292L351.5 199.375L352.5 199.375L352.5 187.292L351.5 187.292ZM351.5 211.458L351.5 223.542L352.5 223.542L352.5 211.458L351.5 211.458ZM351.5 235.625L351.5 247.708L352.5 247.708L352.5 235.625L351.5 235.625ZM351.5 259.792L351.5 271.875L352.5 271.875L352.5 259.792L351.5 259.792ZM351.5 283.958L351.5 296.042L352.5 296.042L352.5 283.958L351.5 283.958ZM351.5 308.125L351.5 320.208L352.5 320.208L352.5 308.125L351.5 308.125ZM351.5 332.292L351.5 344.375L352.5 344.375L352.5 332.292L351.5 332.292ZM351.5 356.458L351.5 368.542L352.5 368.542L352.5 356.458L351.5 356.458ZM351.5 380.625L351.5 392.708L352.5 392.708L352.5 380.625L351.5 380.625ZM351.5 404.792L351.5 416.875L352.5 416.875L352.5 404.792L351.5 404.792ZM351.5 428.958L351.5 441.042L352.5 441.042L352.5 428.958L351.5 428.958ZM351.5 453.125L351.5 465.208L352.5 465.208L352.5 453.125L351.5 453.125ZM351.5 477.292L351.5 489.375L352.5 489.375L352.5 477.292L351.5 477.292ZM351.5 501.458L351.5 513.542L352.5 513.542L352.5 501.458L351.5 501.458ZM351.5 525.625L351.5 537.708L352.5 537.708L352.5 525.625L351.5 525.625ZM351.5 549.792L351.5 561.875L352.5 561.875L352.5 549.792L351.5 549.792ZM351.5 573.958L351.5 580L352.5 580L352.5 573.958L351.5 573.958Z" fill="#121212"/>
<path d="M1120.5 5L1122.89 7.6499e-07L1117.11 -7.6499e-07L1119.5 5L1120.5 5ZM1119.5 4.5L1119.5 6.04167L1120.5 6.04167L1120.5 4.5L1119.5 4.5ZM1119.5 18.125L1119.5 30.2083L1120.5 30.2083L1120.5 18.125L1119.5 18.125ZM1119.5 42.2917L1119.5 54.375L1120.5 54.375L1120.5 42.2917L1119.5 42.2917ZM1119.5 66.4583L1119.5 78.5417L1120.5 78.5417L1120.5 66.4583L1119.5 66.4583ZM1119.5 90.625L1119.5 102.708L1120.5 102.708L1120.5 90.625L1119.5 90.625ZM1119.5 114.792L1119.5 126.875L1120.5 126.875L1120.5 114.792L1119.5 114.792ZM1119.5 138.958L1119.5 151.042L1120.5 151.042L1120.5 138.958L1119.5 138.958ZM1119.5 163.125L1119.5 175.208L1120.5 175.208L1120.5 163.125L1119.5 163.125ZM1119.5 187.292L1119.5 199.375L1120.5 199.375L1120.5 187.292L1119.5 187.292ZM1119.5 211.458L1119.5 223.542L1120.5 223.542L1120.5 211.458L1119.5 211.458ZM1119.5 235.625L1119.5 247.708L1120.5 247.708L1120.5 235.625L1119.5 235.625ZM1119.5 259.792L1119.5 271.875L1120.5 271.875L1120.5 259.792L1119.5 259.792ZM1119.5 283.958L1119.5 296.042L1120.5 296.042L1120.5 283.958L1119.5 283.958ZM1119.5 308.125L1119.5 320.208L1120.5 320.208L1120.5 308.125L1119.5 308.125ZM1119.5 332.292L1119.5 344.375L1120.5 344.375L1120.5 332.292L1119.5 332.292ZM1119.5 356.458L1119.5 368.542L1120.5 368.542L1120.5 356.458L1119.5 356.458ZM1119.5 380.625L1119.5 392.708L1120.5 392.708L1120.5 380.625L1119.5 380.625ZM1119.5 404.792L1119.5 416.875L1120.5 416.875L1120.5 404.792L1119.5 404.792ZM1119.5 428.958L1119.5 441.042L1120.5 441.042L1120.5 428.958L1119.5 428.958ZM1119.5 453.125L1119.5 465.208L1120.5 465.208L1120.5 453.125L1119.5 453.125ZM1119.5 477.292L1119.5 489.375L1120.5 489.375L1120.5 477.292L1119.5 477.292ZM1119.5 501.458L1119.5 513.542L1120.5 513.542L1120.5 501.458L1119.5 501.458ZM1119.5 525.625L1119.5 537.708L1120.5 537.708L1120.5 525.625L1119.5 525.625ZM1119.5 549.792L1119.5 561.875L1120.5 561.875L1120.5 549.792L1119.5 549.792ZM1119.5 573.958L1119.5 580L1120.5 580L1120.5 573.958L1119.5 573.958Z" fill="#121212"/>
<ellipse cx="640" cy="693.5" rx="696" ry="210.5" fill="#EEEEEE"/>
</g>
<defs>
<clipPath id="clip0_48_416">
<rect width="1280" height="720" fill="white"/>
</clipPath>
</defs>
</svg>
