<svg width="621" height="206" viewBox="0 0 621 206" fill="none" xmlns="http://www.w3.org/2000/svg">
<g clip-path="url(#clip0_8_110)">
<path d="M100.626 200.551C94.2683 198.239 88.4282 194.698 83.4398 190.128C78.4513 185.559 74.4121 180.051 71.5531 173.92C68.6941 167.789 67.0712 161.155 66.7772 154.397C66.4832 147.638 67.5238 140.888 69.8397 134.532L70.1038 133.808L145.627 106.321L146.605 109.089C147.441 111.385 148.095 113.744 148.562 116.142C149.475 120.868 149.934 125.67 149.932 130.483C149.93 144.959 145.741 159.126 137.869 171.276C129.998 183.425 118.779 193.039 105.567 198.957L104.657 199.299L100.89 200.659L100.626 200.551Z" fill="url(#paint0_linear_8_110)"/>
<path d="M74.4081 205.491C73.8211 205.491 73.2342 205.491 72.6472 205.491H71.5613C70.583 205.491 69.6634 205.393 68.7243 205.315C68.2449 205.315 67.746 205.237 67.296 205.178C60.3119 204.489 53.4609 202.813 46.9477 200.199C37.5683 196.404 29.049 190.759 21.8976 183.601C14.7461 176.444 9.10892 167.92 5.32181 158.537C3.61067 154.283 2.30061 149.879 1.40869 145.381C1.31086 144.882 1.21302 144.402 1.12498 143.855C1.03693 143.307 0.939113 142.798 0.86085 142.27L0.811918 142.016C0.616262 140.773 0.459746 139.511 0.33257 138.24C0.273873 137.614 0.215163 136.978 0.166248 136.352C0.117334 135.726 0.0782078 135.08 0.0488593 134.395C0.0195109 133.711 -0.00982445 133.143 -0.0293901 132.498C-0.0489557 131.852 -0.0293901 131.167 -0.0293901 130.541V130.414C-0.0293901 129.954 -0.0293901 129.514 -0.0293901 129.064C-0.0293901 128.614 -0.0293901 128.409 -0.0293901 128.086V127.763L0.0390968 126.374C0.0880109 125.396 0.166265 124.476 0.244528 123.547L0.401056 122.139C0.459753 121.561 0.538017 120.984 0.61628 120.397C0.694542 119.81 0.772805 119.292 0.86085 118.744V118.656C0.856216 118.571 0.856216 118.487 0.86085 118.402C0.948896 117.805 1.05651 117.208 1.17391 116.612C1.2913 116.015 1.38911 115.467 1.51628 114.9C1.68259 114.127 1.86848 113.344 2.05436 112.572C2.40654 111.173 2.76851 109.872 3.15982 108.6L5.67398 101.694V101.635L5.75226 101.479L6.10443 100.501L42.6726 0.0195312L54.8425 4.37255C69.9406 9.87248 82.2358 21.1438 89.0238 35.7074C95.8117 50.271 96.5366 66.9342 91.0389 82.0322L75.8462 123.772L75.7875 123.938L71.6787 135.227C69.4518 141.34 68.4513 147.832 68.7344 154.332C69.0175 160.832 70.5786 167.213 73.3286 173.109C76.0786 179.006 79.9635 184.303 84.7615 188.698C89.5594 193.092 95.1763 196.499 101.291 198.722L103.815 199.642L96.1847 202.42C91.9037 203.692 87.516 204.573 83.0757 205.051C82.6452 205.11 82.1854 205.159 81.7257 205.198C80.8256 205.276 79.9158 205.345 79.006 205.393C78.5625 205.393 78.1027 205.413 77.6266 205.452H76.4331H74.4766L74.4081 205.491Z" fill="url(#paint1_linear_8_110)"/>
</g>
<path d="M207.24 168V75.84H224.648V151.744H264.328V168H207.24ZM300.938 170.048C295.519 170.048 291.103 169.131 287.69 167.296C284.277 165.461 281.61 163.136 279.69 160.32C277.813 157.504 276.469 154.581 275.658 151.552C274.847 148.48 274.357 145.685 274.186 143.168C274.015 140.651 273.93 138.816 273.93 137.664V98.88H291.594V131.52C291.594 133.099 291.679 135.125 291.85 137.6C292.021 140.032 292.554 142.485 293.45 144.96C294.346 147.435 295.797 149.504 297.802 151.168C299.85 152.832 302.73 153.664 306.442 153.664C307.935 153.664 309.535 153.429 311.242 152.96C312.949 152.491 314.549 151.595 316.042 150.272C317.535 148.907 318.751 146.923 319.69 144.32C320.671 141.675 321.162 138.219 321.162 133.952L331.146 138.688C331.146 144.149 330.037 149.269 327.818 154.048C325.599 158.827 322.25 162.688 317.77 165.632C313.333 168.576 307.722 170.048 300.938 170.048ZM323.338 168V145.088H321.162V98.88H338.698V168H323.338ZM439.785 168V127.168C439.785 122.603 438.697 119.061 436.521 116.544C434.388 113.984 431.422 112.704 427.625 112.704C425.193 112.704 423.081 113.28 421.289 114.432C419.497 115.541 418.089 117.12 417.065 119.168C416.084 121.173 415.593 123.499 415.593 126.144L408.297 121.28C408.297 116.544 409.406 112.363 411.625 108.736C413.886 105.109 416.894 102.293 420.649 100.288C424.446 98.24 428.649 97.216 433.257 97.216C441.15 97.216 447.102 99.5627 451.113 104.256C455.166 108.907 457.193 115.008 457.193 122.56V168H439.785ZM356.457 168V98.88H371.817V121.792H373.993V168H356.457ZM398.185 168V127.168C398.185 122.603 397.097 119.061 394.921 116.544C392.788 113.984 389.822 112.704 386.025 112.704C382.398 112.704 379.476 113.963 377.257 116.48C375.081 118.955 373.993 122.176 373.993 126.144L366.697 121.024C366.697 116.501 367.828 112.448 370.089 108.864C372.35 105.28 375.38 102.443 379.177 100.352C383.017 98.2613 387.305 97.216 392.041 97.216C397.46 97.216 401.897 98.368 405.353 100.672C408.852 102.976 411.433 106.048 413.097 109.888C414.761 113.728 415.593 117.952 415.593 122.56V168H398.185ZM504.713 169.92C497.63 169.92 491.38 168.405 485.961 165.376C480.585 162.304 476.361 158.101 473.289 152.768C470.26 147.392 468.745 141.248 468.745 134.336C468.745 126.784 470.238 120.213 473.225 114.624C476.212 109.035 480.329 104.704 485.577 101.632C490.825 98.5173 496.862 96.96 503.689 96.96C510.942 96.96 517.108 98.6667 522.185 102.08C527.262 105.493 531.017 110.293 533.449 116.48C535.881 122.667 536.734 129.941 536.009 138.304H518.793V131.904C518.793 124.864 517.662 119.808 515.401 116.736C513.182 113.621 509.534 112.064 504.457 112.064C498.526 112.064 494.153 113.877 491.337 117.504C488.564 121.088 487.177 126.4 487.177 133.44C487.177 139.883 488.564 144.875 491.337 148.416C494.153 151.915 498.27 153.664 503.689 153.664C507.102 153.664 510.025 152.917 512.457 151.424C514.889 149.931 516.745 147.776 518.025 144.96L535.433 149.952C532.83 156.267 528.713 161.173 523.081 164.672C517.492 168.171 511.369 169.92 504.713 169.92ZM481.801 138.304V125.376H527.625V138.304H481.801ZM595.689 168V135.36C595.689 133.781 595.604 131.776 595.433 129.344C595.262 126.869 594.729 124.395 593.833 121.92C592.937 119.445 591.465 117.376 589.417 115.712C587.412 114.048 584.553 113.216 580.841 113.216C579.348 113.216 577.748 113.451 576.041 113.92C574.334 114.389 572.734 115.307 571.241 116.672C569.748 117.995 568.51 119.957 567.529 122.56C566.59 125.163 566.121 128.619 566.121 132.928L556.137 128.192C556.137 122.731 557.246 117.611 559.465 112.832C561.684 108.053 565.012 104.192 569.449 101.248C573.929 98.304 579.561 96.832 586.345 96.832C591.764 96.832 596.18 97.7493 599.593 99.584C603.006 101.419 605.652 103.744 607.529 106.56C609.449 109.376 610.814 112.32 611.625 115.392C612.436 118.421 612.926 121.195 613.097 123.712C613.268 126.229 613.353 128.064 613.353 129.216V168H595.689ZM548.457 168V98.88H563.945V121.792H566.121V168H548.457Z" fill="black"/>
<defs>
<linearGradient id="paint0_linear_8_110" x1="25" y1="185.5" x2="145.5" y2="106" gradientUnits="userSpaceOnUse">
<stop stop-color="#B3CE91"/>
<stop offset="1" stop-color="#FFF500"/>
</linearGradient>
<linearGradient id="paint1_linear_8_110" x1="43" y1="1" x2="104" y2="199.5" gradientUnits="userSpaceOnUse">
<stop stop-color="#75C7FF"/>
<stop offset="1" stop-color="#B3CE91"/>
</linearGradient>
<clipPath id="clip0_8_110">
<rect width="150" height="205.491" fill="white"/>
</clipPath>
</defs>
</svg>
